# xmcd
#
# Track frame offsets: 
#        150
#        29710
#        43237
#        53075
#        83712
#        106957
#        125260
#        185887
#        206507
#        221795
#        229247
#
# Disc length: 4578 seconds
#
# Revision: 1
# Processed by: cddbd v1.5.1PL2 Copyright (c) Steve Scherf et al.
# Submitted via: ExactAudioCopy v0.95b3
#
DISCID=a311e00b
DTITLE=Arne Domnérus - Arne Domnérus Septet In Concert
DYEAR=1996
DGENRE=Jazz
TTITLE0=Blues för mörkret och ljuset
TTITLE1=Bandura
TTITLE2=Längs floden
TTITLE3=Pråmdragarsång
TTITLE4=Blå dunster
TTITLE5=Lurifax
TTITLE6=Mobil III
TTITLE7=Visa fråm Utanmyra
TTITLE8=Till Olof
TTITLE9=Presentation
TTITLE10=Adventures in Jazz and Folklore
EXTD=YEAR: 1996
EXTT0=
EXTT1=
EXTT2=
EXTT3=
EXTT4=
EXTT5=
EXTT6=
EXTT7=
EXTT8=
EXTT9=
EXTT10=
PLAYORDER=
